<svg id="Layer_1" data-name="Layer 1" xmlns="http://www.w3.org/2000/svg" xmlns:xlink="http://www.w3.org/1999/xlink" viewBox="0 0 1.85 2.3"><defs><style>.cls-1{fill:url(#radial-gradient);}.cls-2{fill:url(#linear-gradient);}.cls-3{fill:#006838;}.cls-4{opacity:0.41;}.cls-5{fill:#303030;}</style><radialGradient id="radial-gradient" cx="-15.59" cy="1923.48" r="0.03" gradientTransform="matrix(28.67, 0, 0, -5.53, 448.04, 10642.72)" gradientUnits="userSpaceOnUse"><stop offset="0" stop-color="#231f20"/><stop offset="0.06" stop-color="#231f20" stop-opacity="0.86"/><stop offset="0.33" stop-color="#231f20" stop-opacity="0.38"/><stop offset="0.63" stop-color="#231f20" stop-opacity="0.09"/><stop offset="1" stop-color="#231f20" stop-opacity="0"/></radialGradient><linearGradient id="linear-gradient" x1="981.61" y1="-296.34" x2="981.61" y2="-296.34" gradientTransform="matrix(64.87, 0, 0, -25.15, -63680.36, -7449.81)" gradientUnits="userSpaceOnUse"><stop offset="0" stop-color="#58595b"/><stop offset="0.34" stop-color="#fff"/><stop offset="0.64" stop-color="#bcbec0"/><stop offset="1" stop-color="#58595b"/></linearGradient></defs><g id="Objects"><path class="cls-1" d="M2.12,2.4c0,.1-.41.18-.92.18S.27,2.5.27,2.4s.41-.18.93-.18S2.12,2.3,2.12,2.4Z" transform="translate(-0.27 -0.28)"/><path class="cls-2" d="M1.26,2.38s0,0-.06,0h0s-.06,0-.06,0V1s0,0,.06,0h0s.06,0,.06,0Z" transform="translate(-0.27 -0.28)"/><path class="cls-3" d="M1.89,1A.69.69,0,1,1,1.2.28h0A.69.69,0,0,1,1.89,1Z" transform="translate(-0.27 -0.28)"/><g class="cls-4"><path class="cls-5" d="M1.89,1A.69.69,0,1,1,1.2.28h0A.69.69,0,0,1,1.89,1Z" transform="translate(-0.27 -0.28)"/></g></g></svg>