<svg id="Layer_1" data-name="Layer 1" xmlns="http://www.w3.org/2000/svg" viewBox="0 0 53.77 68.99"><defs><style>.cls-1{fill:#181b26;}.cls-1,.cls-10,.cls-11,.cls-12,.cls-13,.cls-14,.cls-15,.cls-16,.cls-17,.cls-18,.cls-19,.cls-2,.cls-20,.cls-21,.cls-22,.cls-23,.cls-4,.cls-5,.cls-6,.cls-7,.cls-9{fill-rule:evenodd;}.cls-2{fill:#686058;}.cls-3{opacity:0.2;}.cls-5{fill:#f8b287;}.cls-6{fill:#295374;}.cls-7{fill:#eda780;}.cls-8{fill:#4c8e74;}.cls-9{fill:#ee9c94;}.cls-10{fill:#22476b;}.cls-11{fill:#122b49;}.cls-12{fill:#0b2035;}.cls-13,.cls-24{fill:#fff;}.cls-14{fill:#e2e5e8;}.cls-15{fill:#522828;}.cls-16{fill:#5e2a29;}.cls-17{fill:#ed7b5c;}.cls-18{fill:#e4272c;}.cls-19{fill:#edeeef;}.cls-20{fill:#dbced8;}.cls-21{fill:#fff8fd;}.cls-22{fill:#efe1eb;}.cls-23{fill:#1a3d60;}</style></defs><path class="cls-1" d="M211.88,170.68c-.54,1.36-2.38,1.91-4.1,1.22s-2.66-2.35-2.12-3.72,2.39-1.91,4.11-1.22S212.43,169.32,211.88,170.68Z" transform="translate(-168.81 -166.66)"/><path class="cls-2" d="M206.49,169.38c.55-1.37,2.39-1.91,4.1-1.22a3.88,3.88,0,0,1,1.12.67,3.75,3.75,0,0,0-2-1.87c-1.72-.69-3.56-.14-4.11,1.22a2.75,2.75,0,0,0,1,3A2.34,2.34,0,0,1,206.49,169.38Z" transform="translate(-168.81 -166.66)"/><g class="cls-3"><path class="cls-4" d="M201.1,230.41c11.86,0,21.48,1.17,21.48,2.62s-9.62,2.62-21.48,2.62-21.48-1.17-21.48-2.62,9.61-2.62,21.48-2.62Z" transform="translate(-168.81 -166.66)"/></g><path class="cls-5" d="M198.45,200.47c-.49.68-.56,10.35.36,15.11C199.12,217.17,202,230,202,230l1.8-.08s.32-8.87-1.26-14.35c0,0,1.39-8.72.75-10.11Z" transform="translate(-168.81 -166.66)"/><path class="cls-5" d="M204,230.87c0,1.51-1.35-.9-3.94,3.2.31-.5-.66-.87-.85-1.42,1-.53,1.68-2.21,3.15-3C202.77,229.46,204,228.89,204,230.87Z" transform="translate(-168.81 -166.66)"/><path class="cls-6" d="M197.45,234s.28.29,1.48.34c3.11.13,1.7-.33,4.34-2.85l-.5,2.85.37,0a3.6,3.6,0,0,1,1.2-2.4c.57-.59-.19-1.58-.41-1.94-.81.92-3.84,3.86-4.58,2.48C199.35,232.52,197.76,232.88,197.45,234Z" transform="translate(-168.81 -166.66)"/><path class="cls-7" d="M202.49,215.54s.15-.92.33-2.22a57.1,57.1,0,0,1,.45-7.67l-1.34-.08c.64,1.39-.75,10.11-.75,10.11a102,102,0,0,1,2.58,14C203.79,228.34,203.93,220.53,202.49,215.54Z" transform="translate(-168.81 -166.66)"/><path class="cls-5" d="M204.14,200.47c-.49.68-.56,10.35.36,15.11.31,1.59,3.14,14.46,3.14,14.46l1.8-.08s.32-8.87-1.26-14.35c0,0,1.39-8.72.75-10.11Z" transform="translate(-168.81 -166.66)"/><path class="cls-5" d="M209.68,230.87c0,1.51-1.35-.9-3.94,3.2.31-.5-.66-.87-.84-1.42.94-.53,1.67-2.21,3.14-3C208.47,229.46,209.69,228.89,209.68,230.87Z" transform="translate(-168.81 -166.66)"/><path class="cls-6" d="M203.14,234s.28.29,1.48.34c3.11.13,1.7-.33,4.34-2.85l-.5,2.85.37,0A3.6,3.6,0,0,1,210,232c.57-.59-.19-1.58-.41-1.94-.8.92-3.84,3.86-4.58,2.48C205,232.52,203.45,232.88,203.14,234Z" transform="translate(-168.81 -166.66)"/><path class="cls-7" d="M208.18,215.54s.15-.92.33-2.22a57.1,57.1,0,0,1,.45-7.67l-1.34-.08c.64,1.39-.74,10.11-.74,10.11a103,103,0,0,1,2.57,14C209.48,228.34,209.62,220.53,208.18,215.54Z" transform="translate(-168.81 -166.66)"/><polygon class="cls-8" points="33.16 31.67 30.89 31.45 31.26 35.69 36.01 37.52 40.03 31.38 33.16 31.67"/><path class="cls-9" d="M208.93,201.38l.31.65s-.22,1.47-.21,1.61a20.34,20.34,0,0,1-2.48,1.3,4.24,4.24,0,0,1,.32-3.69c.22-.66,1.51-.52,1.63-.53s.33.7.43.66Z" transform="translate(-168.81 -166.66)"/><path class="cls-9" d="M206.26,203.46a.48.48,0,0,1,1-.09l.05,2.46c0,.26,0,.49-.24.51s-.34-.25-.37-.51Z" transform="translate(-168.81 -166.66)"/><path class="cls-9" d="M207,203.4a.49.49,0,1,1,1-.09l.05,2.54c0,.27,0,.51-.24.53s-.36-.26-.38-.53Z" transform="translate(-168.81 -166.66)"/><path class="cls-9" d="M207.62,203.16a.48.48,0,0,1,1-.09l0,2.45c0,.27,0,.5-.24.52s-.34-.25-.37-.51Z" transform="translate(-168.81 -166.66)"/><path class="cls-9" d="M208.31,202.78a.43.43,0,0,1,.33-.51c.21,0,.4.17.43.43l.09,2.45c0,.26,0,.49-.18.51s-.28-.25-.31-.52Z" transform="translate(-168.81 -166.66)"/><path class="cls-10" d="M185.6,180.59l1.37-2.21s5.89,4.85,8.12,5.34,5.11-.94,7.64-.08c1.47.5,1,2.23,1,2.23s-2.85,2.58-10.24.38C193.47,186.25,185.77,181.72,185.6,180.59Z" transform="translate(-168.81 -166.66)"/><path class="cls-11" d="M203.44,184.72l0,.13s-2.85,2.58-10.24.39a53.67,53.67,0,0,1-5.7-5.3l-.36.36c.17,1.14,6.07,6,6.07,6,7.39,2.19,10.24-.39,10.24-.39A2.56,2.56,0,0,0,203.44,184.72Z" transform="translate(-168.81 -166.66)"/><path class="cls-11" d="M210.38,185.48a11.78,11.78,0,0,0-1.12,3.66c0,.8-.1,3.19-.37,6.23a19.81,19.81,0,0,0,.72,6.27,28.88,28.88,0,0,1-5.25.05,19.62,19.62,0,0,1-6.18-1.47s.79-1.88,1.69-4.57c1.4-4.17-1.43-3.83.57-7.83,0-.07-.88-2.24-.88-2.24s.73-2,4.37-2.2a9.33,9.33,0,0,1,4.31.54A4.29,4.29,0,0,1,210.38,185.48Z" transform="translate(-168.81 -166.66)"/><path class="cls-10" d="M198.18,200.18a18.2,18.2,0,0,0,2.19.78c-.51-.17-1.05-.37-1.61-.61,0,0,.79-1.87,1.69-4.56,1.4-4.17-1.42-3.83.58-7.83,0-.07-.88-2.24-.88-2.24s.73-2,4.37-2.2a9.84,9.84,0,0,1,3.27.22,9.21,9.21,0,0,0-3.86-.39c-3.64.2-4.37,2.2-4.37,2.2s.92,2.16.88,2.24c-2,4,.83,3.66-.57,7.83C199,198.31,198.18,200.18,198.18,200.18Z" transform="translate(-168.81 -166.66)"/><path class="cls-12" d="M208.62,195.23c.27-3,.32-5.42.37-6.23a11.5,11.5,0,0,1,1.12-3.65,4.27,4.27,0,0,0-2.15-1.57l-.23-.07a11.07,11.07,0,0,0-1.08,3.57c-.05.8-.1,3.19-.37,6.23a19.49,19.49,0,0,0,.72,6.27,29,29,0,0,1-5.26.05,25.34,25.34,0,0,1-3.51-.57c-.2.52-.33.82-.33.82a19.61,19.61,0,0,0,6.19,1.47,28.89,28.89,0,0,0,5.25-.05A19.81,19.81,0,0,1,208.62,195.23Z" transform="translate(-168.81 -166.66)"/><path class="cls-11" d="M208.9,198.22a17.41,17.41,0,0,1,1.86,5.2c.6,3-.07,6.61.17,7.5,0,0-1.65,1-7.13.44a33.78,33.78,0,0,1-8.77-2,15.89,15.89,0,0,0,1.29-3.22,41,41,0,0,1,1.8-5.86C198.29,200,208.9,198.22,208.9,198.22Z" transform="translate(-168.81 -166.66)"/><path class="cls-12" d="M210.76,203.42a17.41,17.41,0,0,0-1.86-5.2l-.9.15a19,19,0,0,1,1.17,3.81c.6,3-.06,6.61.17,7.5,0,0-1.64,1-7.13.44a35.82,35.82,0,0,1-6.89-1.36c-.17.36-.29.59-.29.59a33.78,33.78,0,0,0,8.77,2c5.48.53,7.13-.44,7.13-.44C210.69,210,211.36,206.46,210.76,203.42Z" transform="translate(-168.81 -166.66)"/><path class="cls-13" d="M195.56,205.38a13.49,13.49,0,0,1,4-8.29s1.41,1.85,8.48.83c.48-.07.84,5.08.73,7a4.25,4.25,0,0,1-4.42,4C199.41,209,195.42,206.74,195.56,205.38Z" transform="translate(-168.81 -166.66)"/><path class="cls-14" d="M208,198c-.48.07-.93.13-1.36.17a34.45,34.45,0,0,1,.23,5,4.25,4.25,0,0,1-4.42,4,14.09,14.09,0,0,1-6.91-1.48c.33,1.37,4.13,3.39,8.77,3.24a4.27,4.27,0,0,0,4.42-4C208.88,203,208.52,197.88,208,198Z" transform="translate(-168.81 -166.66)"/><path class="cls-13" d="M208.93,197.09a11.74,11.74,0,0,1-4.8.65,11.58,11.58,0,0,1-4.73-1.09l-.19.7a27.13,27.13,0,0,0,4.94,1.1,12.14,12.14,0,0,0,4.88-.79Z" transform="translate(-168.81 -166.66)"/><path class="cls-13" d="M204.25,185.4s1.11-.1,1.33-1a2.39,2.39,0,0,0,.11-1.19,3,3,0,0,1,1.1.24c.21.18.51,2-.1,2.62S203.78,186.34,204.25,185.4Z" transform="translate(-168.81 -166.66)"/><path class="cls-13" d="M204.42,185.49s-1-.19-1.14-1.05a2.09,2.09,0,0,1,0-1.11,2.87,2.87,0,0,0-1.05.11c-.21.16-.67,1.85-.16,2.45S204.77,186.41,204.42,185.49Z" transform="translate(-168.81 -166.66)"/><path class="cls-7" d="M205.73,184.39a1.28,1.28,0,0,1-2.48-.21l.13-1.53a1.28,1.28,0,0,1,2.48.21Z" transform="translate(-168.81 -166.66)"/><path class="cls-5" d="M209.85,177.11c-.19,2.92-2.49,5.75-5.36,5.75s-5-2.82-5-5.75.62-6,3.49-6,7.33-.71,6.91,6Z" transform="translate(-168.81 -166.66)"/><path class="cls-7" d="M208.48,171.47c.53.9-.56,3-.68,4.9-.18,2.92-2.16,5.77-4.18,5.8A5.38,5.38,0,0,1,200.8,181a4.78,4.78,0,0,0,3.69,1.95c2.87,0,5.17-2.83,5.36-5.75.24-3.94.43-5.28-1.37-5.75Z" transform="translate(-168.81 -166.66)"/><path class="cls-15" d="M200.43,175.86a1.19,1.19,0,0,1,.22-.12,1.06,1.06,0,0,1,1.25.39.17.17,0,0,0,.23,0,.15.15,0,0,0,0-.23,1.38,1.38,0,0,0-1.63-.51,1.08,1.08,0,0,0-.3.16.17.17,0,0,0,0,.23.17.17,0,0,0,.23,0Z" transform="translate(-168.81 -166.66)"/><path class="cls-15" d="M206.36,176.43a1,1,0,0,0-.14-.22,1,1,0,0,0-1.26-.3.17.17,0,0,1-.22-.09.17.17,0,0,1,.08-.22,1.4,1.4,0,0,1,1.67.41,1.89,1.89,0,0,1,.17.28.17.17,0,0,1-.3.14Z" transform="translate(-168.81 -166.66)"/><path class="cls-16" d="M201.56,177.14c0,.38-.2.69-.45.69s-.44-.31-.44-.69.2-.7.44-.7S201.56,176.75,201.56,177.14Z" transform="translate(-168.81 -166.66)"/><path class="cls-13" d="M201.14,176.78c0,.12-.06.21-.15.21s-.15-.09-.15-.21.07-.2.15-.2.15.09.15.2Z" transform="translate(-168.81 -166.66)"/><path class="cls-16" d="M206,177.16c0,.38-.2.69-.45.69s-.44-.31-.44-.69.19-.7.44-.7S206,176.77,206,177.16Z" transform="translate(-168.81 -166.66)"/><path class="cls-13" d="M205.56,176.87c0,.11-.07.2-.15.2s-.15-.09-.15-.2.06-.21.15-.21.15.09.15.21Z" transform="translate(-168.81 -166.66)"/><path class="cls-17" d="M202.65,178.06v.07a.74.74,0,0,0,.63.73h.11a.71.71,0,0,0,.49-.19.16.16,0,0,0,0-.23.15.15,0,0,0-.23,0,.43.43,0,0,1-.27.1h-.06a.41.41,0,0,1-.35-.4v0a.16.16,0,0,0-.15-.19.18.18,0,0,0-.18.16Z" transform="translate(-168.81 -166.66)"/><path class="cls-18" d="M203.4,181a1.39,1.39,0,0,0,1.09-.6.16.16,0,1,0-.25-.19,1,1,0,0,1-.9.47,1.2,1.2,0,0,1-.92-.67.16.16,0,1,0-.28.16,1.52,1.52,0,0,0,1.18.83Z" transform="translate(-168.81 -166.66)"/><path class="cls-1" d="M199.56,174.41a10.55,10.55,0,0,1,7.95.15c2,3.87,2,1.57,2.66,1.64h.09A9.39,9.39,0,0,1,207,182c1.19-.05,6-6,4.56-9.16-2.46-5.33-7.08-3.54-9.1-2.91C200.61,170.51,199.69,172.9,199.56,174.41Z" transform="translate(-168.81 -166.66)"/><path class="cls-2" d="M207.8,176.36h0ZM206.15,174a9.34,9.34,0,0,1,1.36.53c0,.08,0,.17.05.25-.11-1.41.15-2.61,1-3.18C207.22,171.67,206.61,172.75,206.15,174Z" transform="translate(-168.81 -166.66)"/><path class="cls-7" d="M211.54,177.17a1.19,1.19,0,0,1-1,1.35c-.64.09-1.8-.11-1.9-.76s.92-1.5,1.56-1.6a1.18,1.18,0,0,1,1.32,1Z" transform="translate(-168.81 -166.66)"/><path class="cls-17" d="M210.2,178.16l.2,0a.73.73,0,0,0,.7-.5.66.66,0,0,0,0-.23.74.74,0,0,0-.47-.69.17.17,0,1,0-.12.31.4.4,0,0,1,.26.38.5.5,0,0,1,0,.12.42.42,0,0,1-.39.28h-.11a.16.16,0,1,0-.09.31Z" transform="translate(-168.81 -166.66)"/><path class="cls-13" d="M209.69,176.33c.39-.24.06-.06.54-.12.29-2.39-1.29-7.1-5.79-7.29-8.06-.34-4.81,5.08-4.88,5.49.57-1.74,1.93-3.1,4.79-2.91C208.25,171.75,209.25,174.71,209.69,176.33Z" transform="translate(-168.81 -166.66)"/><path class="cls-19" d="M199.46,174a1.17,1.17,0,0,1,.1.39,4.77,4.77,0,0,1,.72-1.4A3.76,3.76,0,0,0,199.46,174Z" transform="translate(-168.81 -166.66)"/><path class="cls-19" d="M204.44,168.92c-3-.13-4.45.56-5.06,1.48.78-.62,2.17-1,4.54-.93,4.23.18,5.88,4.34,5.82,6.83.3-.18,0,0,.49-.09C210.52,173.82,208.94,169.11,204.44,168.92Z" transform="translate(-168.81 -166.66)"/><path class="cls-13" d="M204.43,187.34a.25.25,0,1,1-.49,0,.25.25,0,0,1,.49,0Z" transform="translate(-168.81 -166.66)"/><path class="cls-13" d="M204.23,188.9a.24.24,0,0,1-.24.25.25.25,0,0,1,0-.49A.24.24,0,0,1,204.23,188.9Z" transform="translate(-168.81 -166.66)"/><path class="cls-13" d="M204.19,190.49a.25.25,0,1,1-.25-.25A.25.25,0,0,1,204.19,190.49Z" transform="translate(-168.81 -166.66)"/><path class="cls-20" d="M182.34,207.44l-8.2-8.95-5.24-5.71s3.51-8.3,10.5-8.39,7.45-5.95,7.45-5.95L198,186.81s.32,4.71-5.94,7.83S182.34,207.44,182.34,207.44Z" transform="translate(-168.81 -166.66)"/><path class="cls-21" d="M182.26,207.1l-8.21-8.95-5.24-5.7s3.51-8.3,10.51-8.39,7.44-6,7.44-6l11.14,8.38s.32,4.71-5.94,7.83S182.26,207.1,182.26,207.1Z" transform="translate(-168.81 -166.66)"/><path class="cls-22" d="M197.9,186.48l-1.78-1.34c-.87,1.25-2.56,2.13-4.54,3.72-12.86,10.3-21,.5-21,.5a18.06,18.06,0,0,0-1.79,3.09l5.24,5.7,8.21,8.95s3.44-9.68,9.7-12.79S197.9,186.48,197.9,186.48Z" transform="translate(-168.81 -166.66)"/><path class="cls-7" d="M193.29,183.67a7.05,7.05,0,0,0,1.75.55c.25,0,1.09-.68,1.09-.68s.33-.21-1.4-.09c-1,.07-1.77-.23-1.44.22Z" transform="translate(-168.81 -166.66)"/><path class="cls-5" d="M194.85,185.75a4.36,4.36,0,0,0,1.17-.47c.17-.08.38-.76.38-.76s.12-.26-.91.47c-.6.42-1.19.62-.64.76Z" transform="translate(-168.81 -166.66)"/><path class="cls-5" d="M197.78,185c-.44-.56-1.26-1.24-1.49-1.52s-1.13.16-1.13.16l-1.75.65c-.22.09.07.33.3.33a4.32,4.32,0,0,0,1.33-.24A6.56,6.56,0,0,1,194,185c-.25.1.11.36.69.19a5.9,5.9,0,0,1,1.2-.2s.23.65.29.76c.18.4,1.89,1.88,2.85,1.81A16.63,16.63,0,0,0,197.78,185Z" transform="translate(-168.81 -166.66)"/><path class="cls-23" d="M201.9,191.36c-3.8.06-5.22-5.27-5.22-5.27l1.59-1.05s2.25,3.15,4.3,2.73a41.71,41.71,0,0,0,6.85-2.75c1.36-.43,1.74,3.36.49,4.44,0,0-1,1.17-8,1.9Z" transform="translate(-168.81 -166.66)"/><path class="cls-12" d="M210.4,185.55a3.08,3.08,0,0,1-.75,2.24s-1,1.17-8,1.9c-2.46,0-3.92-2.17-4.64-3.74l-.25.16s1.42,5.33,5.23,5.27c7-.73,8-1.9,8-1.9A3,3,0,0,0,210.4,185.55Z" transform="translate(-168.81 -166.66)"/><rect class="cls-24" x="196.24" y="185.34" width="2.66" height="0.73" transform="translate(-237.35 -32.99) rotate(-32.16)"/><polygon class="cls-13" points="15.79 14.07 16.58 14.57 18.69 11.73 17.9 11.24 15.79 14.07"/><path class="cls-5" d="M185.25,180.46a.36.36,0,0,1,0-.54.49.49,0,0,1,.6-.14l1.36,1.17c.16.11.29.23.12.41s-.37.1-.53,0Z" transform="translate(-168.81 -166.66)"/><path class="cls-5" d="M185.75,179.89c-.16-.11-.15-.35,0-.54a.46.46,0,0,1,.59-.13l1.37,1.16c.16.12.29.23.12.42s-.37.1-.53,0Z" transform="translate(-168.81 -166.66)"/><path class="cls-5" d="M186.1,179.32a.35.35,0,0,1,0-.54.47.47,0,0,1,.59-.13l1.37,1.17c.16.11.28.22.12.41s-.37.1-.54,0Z" transform="translate(-168.81 -166.66)"/><path class="cls-5" d="M186.38,178.63a.31.31,0,0,1,0-.47h0a.4.4,0,0,1,.53-.06l1.4,1.14c.16.11.28.21.15.36s-.33.06-.49,0Z" transform="translate(-168.81 -166.66)"/></svg>